<svg xmlns="http://www.w3.org/2000/svg" width="32" height="32" enable-background="new 0 0 32 32" viewBox="0 0 32 32" id="telegram"><path fill="#263238" d="M15.737,31C7.474,31,1,24.411,1,16c0-3.629,1.237-7.111,3.485-9.804c0.178-0.212,0.492-0.239,0.704-0.063
		C5.401,6.31,5.43,6.625,5.253,6.837C3.155,9.35,2,12.604,2,16c0,7.851,6.034,14,13.737,14C23.602,30,30,23.72,30,16
		S23.602,2,15.737,2c-2.44,0-4.813,0.62-6.858,1.792C8.642,3.925,8.334,3.846,8.197,3.606C8.06,3.366,8.143,3.061,8.383,2.923
		C10.579,1.665,13.122,1,15.737,1C24.153,1,31,7.729,31,16S24.153,31,15.737,31z"></path><path fill="#263238" d="M7.543 4.552c0 .275-.225.5-.5.5l0 0c-.275 0-.5-.225-.5-.5l0 0c0-.275.225-.5.5-.5l0 0C7.318 4.052 7.543 4.276 7.543 4.552L7.543 4.552zM19.55 24.018c-.111 0-.224-.037-.316-.113l-5.763-4.721c-.113-.092-.18-.229-.184-.375-.003-.146.057-.285.165-.383l4.277-3.86c.205-.187.521-.169.706.036.186.205.169.521-.036.706l-3.846 3.47 5.313 4.353c.214.175.245.49.07.704C19.838 23.955 19.694 24.018 19.55 24.018z"></path><path fill="#263238" d="M20.157,24.204L20.157,24.204c-0.265,0-0.55-0.083-0.849-0.248l-3.286-2.641l-1.684,1.553
			c-0.234,0.229-0.52,0.507-1.089,0.507c-0.7,0-0.863-0.369-0.97-0.748c-0.019-0.065-0.04-0.141-0.071-0.228l-1.206-3.969
			l-3.456-1.078c-0.814-0.25-0.923-0.749-0.932-0.951c-0.014-0.336,0.161-0.815,1.074-1.181l14.848-5.729
			c0.425-0.166,0.924-0.032,1.212,0.323c0.203,0.249,0.281,0.573,0.215,0.889l-2.565,12.275
			C21.168,24.084,20.453,24.204,20.157,24.204z M16,20.155c0.111,0,0.222,0.037,0.313,0.111l3.55,2.862
			c0.459,0.219,0.5-0.085,0.557-0.354L22.985,10.5l-0.063-0.081L8.056,16.151c-0.175,0.07-0.29,0.139-0.36,0.19
			c0.037,0.018,0.086,0.037,0.147,0.056l3.711,1.158c0.157,0.05,0.281,0.174,0.329,0.332l1.274,4.196
			c0.033,0.088,0.061,0.188,0.085,0.272c0.002,0.006,0.004,0.013,0.005,0.019c0.133-0.001,0.203-0.037,0.388-0.218l2.026-1.87
			C15.757,20.2,15.878,20.155,16,20.155z"></path><g><path fill="#263238" d="M20.043,13.552c0,0.275-0.225,0.5-0.5,0.5l0,0c-0.275,0-0.5-0.225-0.5-0.5l0,0
								c0-0.275,0.225-0.5,0.5-0.5l0,0C19.818,13.052,20.043,13.276,20.043,13.552L20.043,13.552z"></path></g></svg>